<?xml version="1.0" standalone="no"?>
<!DOCTYPE svg PUBLIC "-//W3C//DTD SVG 20010904//EN"
 "http://www.w3.org/TR/2001/REC-SVG-20010904/DTD/svg10.dtd">
<svg version="1.0" xmlns="http://www.w3.org/2000/svg"
 width="500.000000pt" height="500.000000pt" viewBox="0 0 500.000000 500.000000"
 preserveAspectRatio="xMidYMid meet">
<metadata>
Created by potrace 1.11, written by Peter Selinger 2001-2013
</metadata>
<g transform="translate(0.000000,500.000000) scale(0.100000,-0.100000)"
fill="#000000" stroke="none">
<path d="M2330 4997 c-3 -3 -41 -8 -85 -11 -429 -33 -900 -215 -1253 -484
-170 -129 -310 -263 -424 -403 -29 -36 -64 -79 -77 -95 -86 -106 -237 -366
-310 -534 -59 -138 -137 -403 -157 -535 -2 -16 -8 -50 -12 -75 -9 -56 -9 -659
0 -720 37 -248 108 -485 211 -700 224 -469 579 -853 1027 -1109 315 -181 680
-295 1012 -318 425 -30 779 21 1138 163 753 299 1329 964 1516 1752 13 57 27
120 30 140 3 20 7 44 9 52 19 71 28 536 13 665 -43 363 -174 733 -373 1049
-165 263 -400 512 -658 696 -348 249 -780 416 -1172 455 -81 8 -429 17 -435
12z m1685 -1597 c3 -5 2 -10 -4 -10 -5 0 -13 5 -16 10 -3 6 -2 10 4 10 5 0 13
-4 16 -10z m31 -67 c-3 -7 -1 -13 4 -13 13 0 13 -72 0 -106 -16 -42 -82 -84
-96 -62 -4 6 -3 9 2 5 9 -5 40 12 42 23 0 3 5 18 11 33 6 16 11 34 11 42 0 8
4 16 9 20 6 3 6 17 1 35 -5 17 -6 30 -2 30 4 0 0 5 -8 10 -11 7 -11 10 -2 10
7 0 10 6 7 13 -4 6 1 3 9 -8 9 -11 14 -25 12 -32z m-1209 21 c-3 -3 -2 -17 3
-30 7 -16 6 -24 -1 -24 -7 0 -5 -10 5 -25 10 -15 12 -25 6 -25 -6 0 -8 -5 -5
-10 4 -6 11 -8 16 -5 5 4 9 -2 10 -12 1 -20 59 -73 84 -77 19 -3 20 -19 2 -22
-17 -2 -76 25 -99 46 -30 28 -49 88 -43 133 7 43 12 57 22 57 4 0 4 -3 0 -6z
m1099 -226 c-9 -5 -23 -5 -32 0 -12 6 -7 9 16 9 23 0 28 -3 16 -9z m-600
-1113 c10 -13 21 -22 24 -20 4 2 7 -2 7 -10 0 -21 -45 12 -63 46 -18 35 -18
50 0 26 7 -9 22 -28 32 -42z m598 -223 c3 -5 -1 -9 -9 -9 -8 0 -12 4 -9 9 3 4
7 8 9 8 2 0 6 -4 9 -8z"/>
</g>
</svg>
